{
  "accessors": [
    {
      "bufferView": 2,
      "componentType": 5126,
      "count": 2678,
      "max": [
        193.26666259765625,
        799.0388793945313,
        148.44952392578125
      ],
      "min": [
        -212.00877380371094,
        -0.016860000789165497,
        -170.7754669189453
      ],
      "type": "VEC3"
    },
    {
      "bufferView": 2,
      "byteOffset": 32136,
      "componentType": 5126,
      "count": 2678,
      "max": [
        0.9998315572738647,
        0.9967976212501526,
        0.9999677538871765
      ],
      "min": [
        -0.999943196773529,
        -0.9969746470451355,
        -0.9999623894691467
      ],
      "type": "VEC3"
    },
    {
      "bufferView": 3,
      "componentType": 5126,
      "count": 2678,
      "max": [
        0.9999656677246094,
        0.9998098611831665,
        0.9999895691871643,
        1.0
      ],
      "min": [
        -0.9999039769172668,
        -0.9999281167984009,
        -0.9999852776527405,
        -1.0
      ],
      "type": "VEC4"
    },
    {
      "bufferView": 1,
      "componentType": 5126,
      "count": 2678,
      "max": [
        0.9995099902153015,
        15.458990097045898
      ],
      "min": [
        0.0004900000058114529,
        0.0004900000058114529
      ],
      "type": "VEC2"
    },
    {
      "bufferView": 0,
      "componentType": 5125,
      "count": 13005,
      "type": "SCALAR"
    },
    {
      "bufferView": 2,
      "byteOffset": 64272,
      "componentType": 5126,
      "count": 3182,
      "max": [
        279.1146545410156,
        815.7130737304688,
        212.68165588378906
      ],
      "min": [
        -266.8544616699219,
        110.8898696899414,
        -222.35780334472656
      ],
      "type": "VEC3"
    },
    {
      "bufferView": 2,
      "byteOffset": 102456,
      "componentType": 5126,
      "count": 3182,
      "max": [
        0.6498367190361023,
        0.9999768137931824,
        0.6853255033493042
      ],
      "min": [
        -0.8600815534591675,
        0.4811721742153168,
        -0.7861698865890503
      ],
      "type": "VEC3"
    },
    {
      "bufferView": 3,
      "byteOffset": 42848,
      "componentType": 5126,
      "count": 3182,
      "max": [
        0.9998860359191895,
        0.6508558988571167,
        0.9999697208404541,
        1.0
      ],
      "min": [
        -0.9999313354492188,
        -0.79765784740448,
        -0.999985933303833,
        -1.0
      ],
      "type": "VEC4"
    },
    {
      "bufferView": 1,
      "byteOffset": 21424,
      "componentType": 5126,
      "count": 3182,
      "max": [
        0.9980199933052063,
        0.9980199933052063
      ],
      "min": [
        0.001979999942705035,
        -0.030470000579953194
      ],
      "type": "VEC2"
    },
    {
      "bufferView": 0,
      "byteOffset": 52020,
      "componentType": 5125,
      "count": 9234,
      "type": "SCALAR"
    }
  ],
  "asset": {
    "extras": {
      "author": "evolveduk (https://sketchfab.com/evolveduk)",
      "license": "CC-BY-4.0 (http://creativecommons.org/licenses/by/4.0/)",
      "source": "https://sketchfab.com/3d-models/birch-tree-aa842dffd9654d33b8b91170ce83c172",
      "title": "Birch tree"
    },
    "generator": "Sketchfab-16.15.0",
    "version": "2.0"
  },
  "bufferViews": [
    {
      "buffer": 0,
      "byteLength": 88956,
      "name": "floatBufferViews",
      "target": 34963
    },
    {
      "buffer": 0,
      "byteLength": 46880,
      "byteOffset": 88956,
      "byteStride": 8,
      "name": "floatBufferViews",
      "target": 34962
    },
    {
      "buffer": 0,
      "byteLength": 140640,
      "byteOffset": 135836,
      "byteStride": 12,
      "name": "floatBufferViews",
      "target": 34962
    },
    {
      "buffer": 0,
      "byteLength": 93760,
      "byteOffset": 276476,
      "byteStride": 16,
      "name": "floatBufferViews",
      "target": 34962
    }
  ],
  "buffers": [
    {
      "byteLength": 370236,
      "uri": "birch_tree.bin"
    }
  ],
  "images": [
    {
      "uri": "textures/bark11_0Mat_baseColor.png"
    },
    {
      "uri": "textures/bark11_0Mat_metallicRoughness.png"
    },
    {
      "uri": "textures/bark11_0Mat_normal.png"
    },
    {
      "uri": "textures/birch_leaf_1Mat_baseColor.png"
    },
    {
      "uri": "textures/birch_leaf_1Mat_metallicRoughness.png"
    },
    {
      "uri": "textures/birch_leaf_1Mat_normal.png"
    }
  ],
  "materials": [
    {
      "doubleSided": true,
      "name": "bark11_0Mat",
      "normalTexture": {
        "index": 2
      },
      "pbrMetallicRoughness": {
        "baseColorTexture": {
          "index": 0
        },
        "metallicFactor": 0.0,
        "metallicRoughnessTexture": {
          "index": 1
        }
      }
    },
    {
      "alphaCutoff": 0.2151264381584376,
      "alphaMode": "MASK",
      "doubleSided": true,
      "name": "birch_leaf_1Mat",
      "normalTexture": {
        "index": 5
      },
      "pbrMetallicRoughness": {
        "baseColorTexture": {
          "index": 3
        },
        "metallicFactor": 0.0,
        "metallicRoughnessTexture": {
          "index": 4
        }
      }
    }
  ],
  "meshes": [
    {
      "name": "bark11_0_bark11_0Mat_0",
      "primitives": [
        {
          "attributes": {
            "NORMAL": 1,
            "POSITION": 0,
            "TANGENT": 2,
            "TEXCOORD_0": 3
          },
          "indices": 4,
          "material": 0,
          "mode": 4
        }
      ]
    },
    {
      "name": "birch leaf_1_birch leaf_1Mat_0",
      "primitives": [
        {
          "attributes": {
            "NORMAL": 6,
            "POSITION": 5,
            "TANGENT": 7,
            "TEXCOORD_0": 8
          },
          "indices": 9,
          "material": 1,
          "mode": 4
        }
      ]
    }
  ],
  "nodes": [
    {
      "children": [
        1
      ],
      "matrix": [
        1.0,
        0.0,
        0.0,
        0.0,
        0.0,
        2.220446049250313e-16,
        -1.0,
        0.0,
        0.0,
        1.0,
        2.220446049250313e-16,
        0.0,
        0.0,
        0.0,
        0.0,
        1.0
      ],
      "name": "Sketchfab_model"
    },
    {
      "children": [
        2
      ],
      "matrix": [
        0.009999999776482582,
        0.0,
        0.0,
        0.0,
        0.0,
        0.0,
        0.009999999776482582,
        0.0,
        0.0,
        -0.009999999776482582,
        0.0,
        0.0,
        0.0,
        0.0,
        0.0,
        1.0
      ],
      "name": "birch.fbx"
    },
    {
      "children": [
        3
      ],
      "name": "RootNode"
    },
    {
      "children": [
        4,
        5
      ],
      "name": "bark11_0"
    },
    {
      "mesh": 0,
      "name": "bark11_0_bark11_0Mat_0"
    },
    {
      "children": [
        6
      ],
      "name": "birch leaf_1"
    },
    {
      "mesh": 1,
      "name": "birch leaf_1_birch leaf_1Mat_0"
    }
  ],
  "samplers": [
    {
      "magFilter": 9729,
      "minFilter": 9987,
      "wrapS": 10497,
      "wrapT": 10497
    }
  ],
  "scene": 0,
  "scenes": [
    {
      "name": "Sketchfab_Scene",
      "nodes": [
        0
      ]
    }
  ],
  "textures": [
    {
      "sampler": 0,
      "source": 0
    },
    {
      "sampler": 0,
      "source": 1
    },
    {
      "sampler": 0,
      "source": 2
    },
    {
      "sampler": 0,
      "source": 3
    },
    {
      "sampler": 0,
      "source": 4
    },
    {
      "sampler": 0,
      "source": 5
    }
  ]
}
